<svg version="1.1" xmlns="http://www.w3.org/2000/svg" xmlns:xlink="http://www.w3.org/1999/xlink" x="0px" y="0px"
	 viewBox="0 0 500 500" style="enable-background:new 0 0 500 500;" xml:space="preserve">
  
<g id="OBJECTS">
	<path style="fill:#1A1A1A;" d="M304.924,211.46c-5.184,2.16-10.583,3.024-10.583,3.024c11.879-19.223-0.088-38.532-0.088-38.532
		c-0.456,3.728-4.113,4.487-4.113,4.487c-2.057-5.982-8.6-9.347-8.6-9.347c-6.356-3.739-19.37-5.599-19.37-5.599
		s-28.402-4.309-38.391-11.557c-9.99-7.247-7.443-13.711-7.443-13.711s0.196-4.309-2.546-6.855c-2.742-2.546-4.309-9.01-4.309-9.01
		s-2.35-6.66,0.196-15.082c2.546-8.423,15.866-4.309,15.866-4.309s11.165,1.567,18.02,0c6.855-1.567,11.752-1.567,11.752-1.567
		c7.835-5.093,6.66-14.886,7.247-19.979c0.382-3.31,3.269-5.61,5.243-6.814c1.217-0.742,2.26-1.733,3.015-2.942
		c3.552-5.691,8.525-10.618,14.779-12.945c2.8-1.042,5.768-1.536,8.716-2.025c4.619-0.766,9.238-1.532,13.857-2.297
		c4.86-0.806,9.818-1.613,14.686-0.86c1.779,0.275,3.523,0.756,5.31,0.971c1.237,0.149,2.485,0.169,3.729,0.24
		c15.132,0.867,30.858,11.135,38.284,24.348c0,0,10.901-15.076,31.08-13.221l-1.392,4.175c0,0,17.146,2.147,23.227-6.013
		c0,0,0.523,1.617,0.614,3.883c0.054,1.347-0.646,3.057-0.646,3.057s18.091-5.335,32.008,0.464c0,0,3.479,11.597-5.567,24.586
		c0,0,2.158-0.055,3.432,0.357c1.531,0.495,2.367,1.498,2.367,1.498s-3.015,13.916-22.962,20.875c0,0,13.221,4.871,12.757,19.251
		c0,0-7.19-11.133-20.411-9.742c-13.221,1.392-16.004,13.453-16.004,13.453s8.582,11.597,6.031,23.658l-0.159-0.185
		c-1.129-1.316-2.599-2.295-4.248-2.83l0,0c0,0,1.855,15.54-11.133,31.312c0,0-1.433-0.74-2.587-2.109
		c-1.102-1.307-1.356-2.994-1.356-2.994s-8.35,20.411-31.08,25.282c0,0,2.087-4.871-0.232-10.669
		c-2.95,8.235-16.05,17.347-24.797,17.269c1.061-4.31,0.53-7.402-0.518-9.838c0,0-10.848,14.476-30.719,17.931
		c0,0,0.713-6.346,0.065-10.017C306.6,212.895,304.924,211.46,304.924,211.46z"/>
</g>
</svg>
